<?xml version="1.0" encoding="utf-8"?>
<!-- Generator: Adobe Illustrator 16.0.0, SVG Export Plug-In . SVG Version: 6.00 Build 0)  -->
<!DOCTYPE svg PUBLIC "-//W3C//DTD SVG 1.1//EN" "http://www.w3.org/Graphics/SVG/1.1/DTD/svg11.dtd">
<svg version="1.1" id="Ebene_1" xmlns="http://www.w3.org/2000/svg" x="0px"
     y="0px"
     width="686.17px" height="155.319px" viewBox="0 0 686.17 155.319" enable-background="new 0 0 686.17 155.319"
     xml:space="preserve">
<g>
	<g>
		<path fill="#575756" d="M147.07,151.812c-8.597,0-16.074-1.686-22.438-5.059c-6.364-3.369-11.285-8.215-14.769-14.523
			c-3.481-6.309-5.221-13.761-5.221-22.356c0-6.42,0.977-12.18,2.936-17.298c1.958-5.113,4.819-9.491,8.566-13.137
			c3.759-3.645,8.242-6.422,13.463-8.319c5.226-1.908,11.044-2.863,17.463-2.863c8.596,0,16.072,1.693,22.441,5.065
			c6.36,3.369,11.312,8.157,14.849,14.357c3.533,6.202,5.302,13.602,5.302,22.194c0,6.529-1.009,12.347-3.021,17.461
			c-2.013,5.113-4.867,9.523-8.563,13.217c-3.703,3.703-8.188,6.504-13.46,8.404C159.337,150.857,153.488,151.812,147.07,151.812z
			 M147.07,133.373c3.589,0,6.69-0.871,9.305-2.613c2.609-1.736,4.675-4.32,6.198-7.746c1.524-3.431,2.285-7.811,2.285-13.139
			c0-7.94-1.63-13.792-4.895-17.544c-3.263-3.754-7.564-5.633-12.894-5.633c-3.483,0-6.558,0.816-9.216,2.454
			c-2.67,1.629-4.734,4.156-6.208,7.586c-1.464,3.428-2.2,7.806-2.2,13.137c0,7.944,1.632,13.848,4.895,17.704
			C137.608,131.445,141.848,133.373,147.07,133.373z"/>
	</g>
    <path fill="#575756" d="M228.835,81.679c2.38-3.825,5.447-6.807,9.377-9.097c4.948-2.878,10.578-4.325,16.889-4.325
		c6.417,0,11.694,1.224,15.831,3.672c4.137,2.451,7.233,6.149,9.299,11.098c2.066,4.955,3.102,11.236,3.102,18.852v37.043
		c0,4.025-1.058,7.129-3.182,9.305c-2.12,2.17-5.199,3.262-9.219,3.262c-3.918,0-6.934-1.092-9.059-3.262
		c-2.119-2.176-3.179-5.279-3.179-9.305v-35.901c0-5.55-1.009-9.548-3.021-11.994c-2.015-2.45-5.09-3.676-9.224-3.676
		c-5.221,0-9.38,1.632-12.481,4.895c-3.102,3.267-4.653,7.62-4.653,13.061v33.616c0,8.381-4.078,12.566-12.234,12.566
		c-4.025,0-7.1-1.092-9.222-3.262c-2.122-2.176-3.182-5.279-3.182-9.305V80.987c0-4.022,1.06-7.098,3.182-9.22
		s5.085-3.179,8.895-3.179c3.916,0,6.904,1.057,8.974,3.179c2.065,2.122,3.101,5.197,3.101,9.22L228.835,81.679z"/>
    <path fill="#575756" d="M332.654,69.892h42.551c3.918,0,6.938,1.172,9.059,3.506c2.123,2.344,3.182,5.636,3.182,9.875v54.672
		c0,4.238-1.033,7.533-3.1,9.869c-2.066,2.344-5.115,3.508-9.141,3.508c-3.912,0-6.963-1.164-9.141-3.508
		c-2.174-2.336-3.26-5.631-3.26-9.869V88.332h-30.187v50.589c0,8.381-4.083,12.566-12.245,12.566c-4.024,0-7.097-1.092-9.216-3.262
		c-2.125-2.176-3.182-5.279-3.182-9.305V88.332h-5.879c-3.046,0-5.411-0.818-7.098-2.446c-1.688-1.632-2.531-3.861-2.531-6.692
		c0-3.048,0.844-5.357,2.531-6.94c1.687-1.571,4.052-2.361,7.098-2.361l5.893-0.109c0.251-10.644,3.075-18.767,8.472-24.365
		c5.654-5.881,14.032-9.414,25.13-10.612l4.73-0.49c3.045-0.214,5.472,0.192,7.265,1.228c1.793,1.035,2.992,2.417,3.586,4.156
		c0.6,1.747,0.736,3.54,0.408,5.387c-0.326,1.852-1.061,3.454-2.201,4.813c-1.141,1.365-2.582,2.098-4.328,2.205l-3.424,0.326
		c-5.439,0.327-9.301,1.688-11.586,4.079c-2.285,2.39-3.423,5.935-3.423,10.609L332.654,69.892z"/>
    <path fill="#575756" d="M462.737,138.951c-1.521,2.873-4.469,5.781-7.977,8.053c-4.951,3.203-10.633,4.809-17.049,4.809
		c-6.963,0-13.088-1.686-18.361-5.059c-5.281-3.369-9.383-8.215-12.322-14.523c-2.938-6.309-4.404-13.761-4.404-22.356
		c0-8.593,1.467-15.992,4.404-22.194c2.939-6.2,7.041-10.988,12.322-14.357c5.273-3.372,11.398-5.065,18.361-5.065
		c6.305,0,11.879,1.528,16.727,4.573c3.518,2.215,6.217,4.917,8.098,8.11l-0.023-1.27V46.063c0-4.129,1.033-7.258,3.1-9.382
		c2.064-2.122,5.121-3.182,9.141-3.182c3.918,0,6.963,1.06,9.141,3.182c2.174,2.124,3.26,5.253,3.26,9.382v92.859
		c0,4.025-1.063,7.129-3.182,9.305c-2.119,2.17-5.141,3.262-9.053,3.262c-3.918,0-6.939-1.092-9.059-3.262
		c-2.119-2.176-3.07-4.287-3.123-8.242V138.951z M445.049,133.373c3.59,0,6.695-0.871,9.307-2.613
		c2.611-1.736,4.678-4.32,6.197-7.746c1.525-3.431,2.285-7.811,2.285-13.139c0-7.94-1.627-13.792-4.896-17.544
		c-3.26-3.754-7.563-5.633-12.893-5.633c-3.484,0-6.555,0.816-9.215,2.454c-2.67,1.629-4.736,4.156-6.207,7.586
		c-1.467,3.428-2.197,7.806-2.197,13.137c0,7.944,1.627,13.848,4.891,17.704C435.586,131.445,439.825,133.373,445.049,133.373z"/>
    <g>
		<path fill="#575756" d="M544.596,151.812c-8.596,0-16.076-1.686-22.439-5.059c-6.363-3.369-11.285-8.215-14.773-14.523
			c-3.475-6.309-5.213-13.761-5.213-22.356c0-6.42,0.975-12.18,2.934-17.298c1.957-5.113,4.813-9.491,8.57-13.137
			c3.752-3.645,8.24-6.422,13.463-8.319c5.219-1.908,11.041-2.863,17.459-2.863c8.594,0,16.074,1.693,22.441,5.065
			c6.359,3.369,11.311,8.157,14.848,14.357c3.533,6.202,5.301,13.602,5.301,22.194c0,6.529-1.004,12.347-3.021,17.461
			c-2.012,5.113-4.867,9.523-8.564,13.217c-3.699,3.703-8.186,6.504-13.463,8.404S551.018,151.812,544.596,151.812z
			 M544.596,133.373c3.596,0,6.689-0.871,9.301-2.613c2.611-1.736,4.674-4.32,6.203-7.746c1.52-3.431,2.285-7.811,2.285-13.139
			c0-7.94-1.637-13.792-4.896-17.544c-3.266-3.754-7.563-5.633-12.893-5.633c-3.484,0-6.559,0.816-9.219,2.454
			c-2.666,1.629-4.736,4.156-6.203,7.586c-1.467,3.428-2.197,7.806-2.197,13.137c0,7.944,1.627,13.848,4.891,17.704
			C535.133,131.445,539.372,133.373,544.596,133.373z"/>
	</g>
    <g>
		<path fill="#575756" d="M640.711,151.812c-8.6,0-16.07-1.686-22.438-5.059c-6.363-3.369-11.285-8.215-14.77-14.523
			s-5.219-13.761-5.219-22.356c0-6.42,0.975-12.18,2.934-17.298c1.965-5.113,4.818-9.491,8.57-13.137
			c3.748-3.645,8.24-6.422,13.463-8.319c5.219-1.908,11.037-2.863,17.459-2.863c8.596,0,16.074,1.693,22.438,5.065
			c6.369,3.369,11.314,8.157,14.857,14.357c3.527,6.202,5.301,13.602,5.301,22.194c0,6.529-1.008,12.347-3.02,17.461
			c-2.014,5.113-4.873,9.523-8.572,13.217c-3.697,3.703-8.186,6.504-13.457,8.404C652.975,150.857,647.129,151.812,640.711,151.812z
			 M640.711,133.373c3.586,0,6.689-0.871,9.307-2.613c2.602-1.736,4.668-4.32,6.197-7.746c1.521-3.431,2.285-7.811,2.285-13.139
			c0-7.94-1.637-13.792-4.896-17.544c-3.26-3.754-7.563-5.633-12.893-5.633c-3.484,0-6.553,0.816-9.219,2.454
			c-2.67,1.629-4.73,4.156-6.197,7.586c-1.473,3.428-2.207,7.806-2.207,13.137c0,7.944,1.631,13.848,4.891,17.704
			C631.249,131.445,635.493,133.373,640.711,133.373z"/>
	</g>
</g>
    <path fill="#F39724" d="M393.079,45.271l-8.338-8.207c-2.811-2.814-5.721-4.237-8.721-4.276c-3.002-0.032-5.818,1.447-8.723,4.164
	c-2.709,2.528-4.195,5.421-4.219,8.247l0.004,0.173c0.219,2.407,1.623,5.657,4.176,8.435c2.695,2.928,5.715,4.202,8.723,4.163
	c3-0.039,5.91-1.467,8.717-4.28l7.863-7.903L393.079,45.271z"/>
    <g>
	<path fill="#F39724" d="M38.332,138.597c0,9.975-5.796,14.957-17.378,14.957c-5.718,0-10.082-1.297-13.095-3.881
		c-3.011-2.59-4.517-6.289-4.517-11.076V19.909c0-4.921,1.505-8.646,4.517-11.175c3.014-2.529,7.377-3.791,13.095-3.791
		c5.56,0,9.848,1.262,12.858,3.791c3.014,2.529,4.52,6.254,4.52,11.175V138.597z"/>
</g>
    <g>
	<path fill="#0E9B6A" d="M28.95,89.129c-6.995,6.995-13.895,7.08-20.701,0.272c-3.36-3.359-5.014-6.828-4.973-10.415
		c0.046-3.586,1.752-7.058,5.106-10.42L66.961,9.994c3.447-3.45,6.943-5.172,10.481-5.172c3.544,0,6.992,1.676,10.354,5.036
		c3.265,3.267,4.899,6.668,4.899,10.213c0,3.544-1.725,7.038-5.172,10.485L28.95,89.129z"/>
</g>
    <g>
	<path fill="#3F8DA4" d="M8.587,89.813c-6.992-6.987-7.08-13.892-0.271-20.693c3.36-3.362,6.832-5.02,10.417-4.98
		c3.582,0.052,7.061,1.754,10.416,5.111l58.573,58.577c3.452,3.451,5.175,6.945,5.175,10.484c0,3.541-1.676,6.992-5.036,10.352
		c-3.267,3.264-6.673,4.902-10.215,4.902c-3.54,0-7.036-1.727-10.483-5.174L8.587,89.813z"/>
</g>
    <g>
	<path fill="#575756" d="M29.15,69.251c-3.355-3.357-6.834-5.06-10.416-5.111c-3.586-0.039-7.058,1.618-10.417,4.98
		c-3.34,3.34-5.014,6.699-5.033,10.086c0.005,0.292,0.02,0.58,0.044,0.869c0.007,0.11,0.015,0.22,0.027,0.322
		c0.041,0.383,0.107,0.768,0.192,1.143c0.007,0.054,0.015,0.1,0.027,0.156c0.087,0.36,0.195,0.721,0.314,1.079
		c0.032,0.09,0.059,0.183,0.09,0.271c0.107,0.299,0.239,0.599,0.373,0.901c0.066,0.148,0.127,0.302,0.202,0.448
		c0.125,0.263,0.271,0.517,0.417,0.774c0.1,0.176,0.197,0.354,0.305,0.533c0.192,0.317,0.404,0.629,0.631,0.94
		c0.061,0.093,0.119,0.181,0.188,0.269c0.616,0.841,1.333,1.671,2.156,2.489c6.807,6.808,13.707,6.723,20.701-0.272l10.035-10.04
		L29.15,69.251z"/>
</g>
</svg>
